<svg width="84" height="26" viewBox="0 0 84 26" fill="none" xmlns="http://www.w3.org/2000/svg">
<path d="M18.7812 18.6685C18.7699 19.3862 18.7414 20.0186 18.6958 20.5654C18.6616 21.1009 18.599 21.6079 18.5078 22.0864C18.4167 22.5649 18.3198 22.9694 18.2173 23.2998C18.1147 23.6302 17.9495 23.9435 17.7217 24.2397C17.5052 24.5246 17.2944 24.7581 17.0894 24.9404C16.8843 25.1113 16.5881 25.2708 16.2007 25.4189C15.8247 25.5557 15.4601 25.6582 15.1069 25.7266C14.7537 25.7949 14.2809 25.8519 13.6885 25.8975C13.1074 25.943 12.5435 25.9715 11.9966 25.9829C11.4611 25.9943 10.7832 26 9.96289 26H0.836914V0.536133H10.5098C11.7972 0.536133 12.8625 0.604492 13.7056 0.741211C14.5601 0.866536 15.312 1.1001 15.9614 1.44189C16.6222 1.78369 17.1007 2.2679 17.397 2.89453C17.6932 3.52116 17.847 4.31868 17.8584 5.28711L17.8755 7.13281C17.8755 7.90755 17.847 8.53988 17.79 9.02979C17.7331 9.51969 17.6305 9.96403 17.4824 10.3628C17.3457 10.7616 17.1349 11.0749 16.8501 11.3027C16.5653 11.5306 16.2178 11.7243 15.8076 11.8838C15.4089 12.0319 14.8905 12.1629 14.2524 12.2769C15.0272 12.3566 15.6937 12.5275 16.252 12.7896C16.8102 13.0516 17.2489 13.3649 17.5679 13.7295C17.8983 14.0941 18.1546 14.5555 18.3369 15.1138C18.5192 15.672 18.6388 16.2189 18.6958 16.7544C18.7528 17.2899 18.7812 17.9279 18.7812 18.6685ZM14.4917 6.39795C14.4917 6.37516 14.4917 6.34098 14.4917 6.29541C14.4917 5.81689 14.4917 5.48079 14.4917 5.28711C14.4917 5.08203 14.4575 4.83708 14.3892 4.55225C14.3322 4.25602 14.2695 4.06234 14.2012 3.97119C14.1442 3.88005 14.0018 3.76042 13.7739 3.6123C13.5575 3.4528 13.341 3.36165 13.1245 3.33887C12.908 3.30469 12.5662 3.26481 12.0991 3.21924C11.6434 3.16227 11.1877 3.13379 10.7319 3.13379C10.2762 3.13379 9.65527 3.13379 8.86914 3.13379H4.27197V11.3027H7.70703C9.19954 11.3027 10.4072 11.2629 11.3301 11.1831C12.2529 11.092 12.9365 10.9438 13.3809 10.7388C13.8366 10.5223 14.1328 10.2944 14.2695 10.0552C14.4176 9.81592 14.4917 9.49691 14.4917 9.09814V6.39795ZM15.3975 17.8481C15.3747 16.4924 15.3234 15.6379 15.2437 15.2847C15.0841 14.658 14.6911 14.2308 14.0645 14.0029C13.2897 13.7067 11.5579 13.5529 8.86914 13.5415C8.68685 13.5415 8.48747 13.5415 8.271 13.5415H4.27197V23.4194H10.8003C12.1219 23.4194 13.1188 23.3112 13.791 23.0947C14.4632 22.8669 14.9076 22.5308 15.124 22.0864C15.3405 21.6421 15.443 20.987 15.4316 20.1211L15.3975 17.8481ZM29.4897 26L30.7544 0.382324H34.5142L41.8628 20.4287L49.0747 0.382324H52.8345L54.1846 26H50.8008L49.9121 5.4751L42.8369 26H40.8545L33.4375 5.62891L32.6855 26H29.4897ZM83.9995 26H80.479L78.5479 19.4888H69.1313L67.2686 26H63.936L71.7461 0.536133H76.3774L83.9995 26ZM77.8301 17.0278L75.6768 9.38867L73.8994 3.13379C73.2386 5.49219 72.6576 7.52018 72.1562 9.21777L69.8662 17.0278H77.8301Z" fill="black"/>
</svg>
